<svg xmlns="http://www.w3.org/2000/svg" version="1.1" xmlns:xlink="http://www.w3.org/1999/xlink" xmlns:svgjs="http://svgjs.dev/svgjs" viewBox="0 0 800 800"><defs><linearGradient x1="50%" y1="0%" x2="50%" y2="100%" id="cccoil-grad"><stop stop-color="hsl(206, 75%, 49%)" stop-opacity="1" offset="0%"></stop><stop stop-color="hsl(331, 90%, 56%)" stop-opacity="1" offset="100%"></stop></linearGradient></defs><g stroke="url(#cccoil-grad)" fill="none" stroke-linecap="round"><circle r="363" cx="400" cy="400" stroke-width="5" stroke-dasharray="1756 2281" transform="rotate(360, 400, 400)"></circle><circle r="346.5" cx="400" cy="400" stroke-width="5" stroke-dasharray="1597 2177" transform="rotate(343, 400, 400)"></circle><circle r="330" cx="400" cy="400" stroke-width="5" stroke-dasharray="1445 2073" transform="rotate(326, 400, 400)"></circle><circle r="313.5" cx="400" cy="400" stroke-width="5" stroke-dasharray="1300 1970" transform="rotate(309, 400, 400)"></circle><circle r="297" cx="400" cy="400" stroke-width="5" stroke-dasharray="1163 1866" transform="rotate(291, 400, 400)"></circle><circle r="280.5" cx="400" cy="400" stroke-width="5" stroke-dasharray="1034 1762" transform="rotate(274, 400, 400)"></circle><circle r="264" cx="400" cy="400" stroke-width="5" stroke-dasharray="912 1659" transform="rotate(257, 400, 400)"></circle><circle r="247.5" cx="400" cy="400" stroke-width="5" stroke-dasharray="798 1555" transform="rotate(240, 400, 400)"></circle><circle r="231" cx="400" cy="400" stroke-width="5" stroke-dasharray="692 1451" transform="rotate(223, 400, 400)"></circle><circle r="214.5" cx="400" cy="400" stroke-width="5" stroke-dasharray="593 1348" transform="rotate(206, 400, 400)"></circle><circle r="198" cx="400" cy="400" stroke-width="5" stroke-dasharray="502 1244" transform="rotate(189, 400, 400)"></circle><circle r="181.5" cx="400" cy="400" stroke-width="5" stroke-dasharray="418 1140" transform="rotate(171, 400, 400)"></circle><circle r="165" cx="400" cy="400" stroke-width="5" stroke-dasharray="342 1037" transform="rotate(154, 400, 400)"></circle><circle r="148.5" cx="400" cy="400" stroke-width="5" stroke-dasharray="274 933" transform="rotate(137, 400, 400)"></circle><circle r="132" cx="400" cy="400" stroke-width="5" stroke-dasharray="213 829" transform="rotate(120, 400, 400)"></circle><circle r="115.5" cx="400" cy="400" stroke-width="5" stroke-dasharray="160 726" transform="rotate(103, 400, 400)"></circle><circle r="99" cx="400" cy="400" stroke-width="5" stroke-dasharray="114 622" transform="rotate(86, 400, 400)"></circle><circle r="82.5" cx="400" cy="400" stroke-width="5" stroke-dasharray="76 518" transform="rotate(69, 400, 400)"></circle><circle r="66" cx="400" cy="400" stroke-width="5" stroke-dasharray="46 415" transform="rotate(51, 400, 400)"></circle><circle r="49.5" cx="400" cy="400" stroke-width="5" stroke-dasharray="23 311" transform="rotate(34, 400, 400)"></circle><circle r="33" cx="400" cy="400" stroke-width="5" stroke-dasharray="8 207" transform="rotate(17, 400, 400)"></circle><circle r="16.5" cx="400" cy="400" stroke-width="5" stroke-dasharray="0 104"></circle></g></svg>